<svg width="74" height="64" viewBox="0 0 74 64" fill="none" xmlns="http://www.w3.org/2000/svg">
<g clip-path="url(#clip0_502_9)">
<path d="M22.6617 22.9171L36.4772 14.9407C36.6471 14.8426 36.8399 14.7909 37.0361 14.7909C37.2323 14.7909 37.4251 14.8426 37.595 14.9407L51.4105 22.9171C51.5804 23.0152 51.7215 23.1563 51.8196 23.3263C51.9177 23.4962 51.9694 23.6889 51.9694 23.8851V39.8378C51.9694 40.2369 51.7561 40.6058 51.4105 40.8058L37.595 48.7821C37.4251 48.8803 37.2323 48.9319 37.0361 48.9319C36.8399 48.9319 36.6471 48.8803 36.4772 48.7821L22.6617 40.8058C22.4918 40.7076 22.3507 40.5665 22.2526 40.3966C22.1545 40.2267 22.1028 40.034 22.1028 39.8378V23.8848C22.1031 23.4854 22.3161 23.1168 22.6617 22.9168" fill="#8080F2"/>
<path d="M72.8525 30.5542L56.328 1.80622C55.7278 0.766862 54.619 0 53.4187 0H20.3693C19.169 0 18.0596 0.766862 17.4595 1.80622L0.935241 30.4907C0.335063 31.5304 0.335063 32.8425 0.935241 33.8822L17.4595 62.3946C18.0596 63.434 19.169 63.9653 20.3693 63.9653H53.4184C54.6187 63.9653 55.7278 63.4499 56.3277 62.4103L72.8522 33.8515C73.4529 32.8124 73.4529 31.5935 72.8522 30.5542H72.8525ZM59.1693 44.3782C59.1693 44.8006 58.915 45.1917 58.5486 45.4033L37.5 57.5471C37.3188 57.6509 37.1135 57.7056 36.9047 57.7056C36.6958 57.7056 36.4906 57.6509 36.3093 57.5471L15.2445 45.4033C14.8784 45.1917 14.6221 44.8009 14.6221 44.3779V20.0897C14.6221 19.6668 14.8747 19.2762 15.2411 19.0646L36.2886 6.92053C36.4697 6.81653 36.6749 6.7618 36.8838 6.7618C37.0926 6.7618 37.2978 6.81653 37.479 6.92053L58.5449 19.0646C58.9116 19.2762 59.1693 19.6668 59.1693 20.0897V44.3779V44.3782Z" fill="#4B32C3"/>
</g>
<defs>
<clipPath id="clip0_502_9">
<rect width="72.8266" height="64" fill="white" transform="translate(0.480591)"/>
</clipPath>
</defs>
</svg>
