<svg width="48" height="70" viewBox="0 0 48 70" fill="none" xmlns="http://www.w3.org/2000/svg">
<g clip-path="url(#clip0)">
<path d="M12.1461 70C18.6308 70 23.8937 64.7733 23.8937 58.3333V46.6666H12.1461C5.66138 46.6666 0.398438 51.8933 0.398438 58.3333C0.398438 64.7733 5.66138 70 12.1461 70Z" fill="#0ACF83"/>
<path d="M0.398438 35C0.398438 28.56 5.66138 23.3334 12.1461 23.3334H23.8937V46.6667H12.1461C5.66138 46.6667 0.398438 41.44 0.398438 35Z" fill="#A259FF"/>
<path d="M0.398071 11.6667C0.398071 5.22667 5.66102 0 12.1457 0H23.8934V23.3333H12.1457C5.66102 23.3333 0.398071 18.1067 0.398071 11.6667Z" fill="#F24E1E"/>
<path d="M23.8938 0H35.6415C42.1262 0 47.3891 5.22667 47.3891 11.6667C47.3891 18.1067 42.1262 23.3333 35.6415 23.3333H23.8938V0Z" fill="#FF7262"/>
<path d="M47.3891 35C47.3891 41.44 42.1262 46.6667 35.6415 46.6667C29.1567 46.6667 23.8938 41.44 23.8938 35C23.8938 28.56 29.1567 23.3334 35.6415 23.3334C42.1262 23.3334 47.3891 28.56 47.3891 35Z" fill="#1ABCFE"/>
</g>
<defs>
<clipPath id="clip0">
<rect width="47" height="70" fill="white" transform="translate(0.393799)"/>
</clipPath>
</defs>
</svg>
