<svg width="65" height="64" viewBox="0 0 65 64" fill="none" xmlns="http://www.w3.org/2000/svg">
<g clip-path="url(#clip0)">
<path d="M64.8929 0.00842285H0.893555V64.0078H64.8929V0.00842285Z" fill="#0051CD"/>
<path d="M39.4382 1.02161L46.5903 5.13447L18.4246 21.3318L11.2725 17.2189L39.4382 1.02161Z" fill="white"/>
<path d="M46.8785 5.99805L18.8899 22.0862L18.8889 30.2255L46.8776 14.1373L46.8785 5.99805Z" fill="white"/>
<path d="M35.623 21.8833L18.9483 31.4679L18.9474 39.6079L35.6221 30.0233L35.623 21.8833Z" fill="white"/>
<path d="M29.2314 34.751L18.9098 40.6843L18.9088 48.8243L29.2312 42.891L29.2314 34.751Z" fill="white"/>
<path d="M10.7639 18.0032L17.958 22.1382L17.9553 30.2797L10.7611 26.1447L10.7639 18.0032Z" fill="white"/>
<path d="M10.8324 27.3289L17.9392 31.4138L17.9365 39.5552L10.8296 35.4704L10.8324 27.3289Z" fill="white"/>
<path d="M10.8291 36.5984L17.9384 40.6847L17.9354 49.3633L10.8262 45.277L10.8291 36.5984Z" fill="white"/>
<path d="M26.6705 62.9956L19.5184 58.8828L47.3647 42.8699L54.5167 46.9827L26.6705 62.9956Z" fill="white"/>
<path d="M18.9519 58.1787L46.8985 42.1148L46.8994 33.9756L18.9528 50.0394L18.9519 58.1787Z" fill="white"/>
<path d="M30.1649 42.3185L46.8396 32.7339L46.8406 24.5939L30.1659 34.1785L30.1649 42.3185Z" fill="white"/>
<path d="M36.5571 29.4501L46.8788 23.5167L46.8797 15.3767L36.558 21.3101L36.5571 29.4501Z" fill="white"/>
<path d="M55.0255 46.2523L47.8314 42.1173L47.8342 33.9758L55.0283 38.1108L55.0255 46.2523Z" fill="white"/>
<path d="M54.9575 36.8743L47.8506 32.7894L47.8533 24.6479L54.9602 28.7328L54.9575 36.8743Z" fill="white"/>
<path d="M54.9605 27.6047L47.8512 23.5184L47.8541 14.9955L54.9634 19.0817L54.9605 27.6047Z" fill="white"/>
</g>
<defs>
<clipPath id="clip0">
<rect width="64" height="64" fill="white" transform="translate(0.893799)"/>
</clipPath>
</defs>
</svg>
