<svg width="65" height="64" viewBox="0 0 65 64" fill="none" xmlns="http://www.w3.org/2000/svg">
<g clip-path="url(#clip0)">
<path d="M64.7936 0H0.79364V64H64.7936V0Z" fill="#F7DF1E"/>
<path d="M43.7855 50.0003C45.0746 52.1052 46.7518 53.6524 49.7182 53.6524C52.2101 53.6524 53.802 52.4069 53.802 50.686C53.802 48.6238 52.1664 47.8934 49.4236 46.6936L47.9201 46.0486C43.5803 44.1997 40.6972 41.8835 40.6972 36.987C40.6972 32.4765 44.1339 29.0428 49.5048 29.0428C53.3286 29.0428 56.0775 30.3736 58.0585 33.8581L53.3753 36.8651C52.3442 35.0162 51.2318 34.2878 49.5048 34.2878C47.7433 34.2878 46.6269 35.4053 46.6269 36.8651C46.6269 38.6693 47.7443 39.3997 50.3246 40.5171L51.8281 41.1612C56.938 43.3524 59.8231 45.5863 59.8231 50.6088C59.8231 56.0234 55.5696 58.9898 49.8573 58.9898C44.2721 58.9898 40.6637 56.3282 38.8981 52.8397L43.7855 50.0003ZM22.5405 50.5214C23.4853 52.1976 24.3447 53.6148 26.411 53.6148C28.3869 53.6148 29.6333 52.8417 29.6333 49.8357V29.3862H35.6473V49.917C35.6473 56.1443 31.9963 58.9786 26.667 58.9786C21.8517 58.9786 19.0632 56.4867 17.645 53.4853L22.5405 50.5214Z" fill="black"/>
</g>
<defs>
<clipPath id="clip0">
<rect width="64" height="64" fill="white" transform="translate(0.79364)"/>
</clipPath>
</defs>
</svg>
