<svg width="65" height="72" viewBox="0 0 65 72" fill="none" xmlns="http://www.w3.org/2000/svg">
<g clip-path="url(#clip0_502_5)">
<path d="M60.4737 35.4258C60.4737 31.7923 57.5282 28.8468 53.8947 28.8468C53.661 28.8468 53.4305 28.8592 53.2032 28.883L62.2395 2.23175H23.8385L32.862 28.86C32.7297 28.852 32.5967 28.8468 32.4622 28.8468C28.8287 28.8468 25.8832 31.7923 25.8832 35.4258C25.8832 38.3628 27.808 40.8493 30.4647 41.6953C29.0615 44.1258 27.296 46.3147 25.2915 48.2057C22.5657 50.7772 19.4462 52.727 16.0725 53.9285C12.0555 51.865 10.1585 47.2755 11.8702 43.2518C12.0635 42.7975 12.2607 42.3368 12.4495 41.8783C15.3595 41.199 17.528 38.59 17.528 35.473C17.528 31.8395 14.5825 28.894 10.949 28.894C7.31522 28.894 4.36972 31.8395 4.36972 35.473C4.36972 37.7012 5.47847 39.669 7.17297 40.8592C5.54447 44.567 3.15097 48.447 2.40522 52.944C1.51147 58.3338 2.40247 64.0547 7.06372 67.2855C17.9197 74.8095 29.7037 62.6213 42.1285 59.5573C46.6312 58.4468 51.574 58.6257 55.5412 56.328C58.5205 54.6025 60.4845 51.743 61.042 48.5325C61.5925 45.361 60.7897 42.2032 58.9437 39.6427C59.8985 38.5007 60.4737 37.0308 60.4737 35.4258ZM39.0407 35.449C39.0407 35.4413 39.0415 35.4335 39.0415 35.4258C39.0415 33.0398 37.771 30.9503 35.87 29.797L43.052 15.2743L50.2465 29.951C48.4797 31.1305 47.3155 33.142 47.3155 35.4258C47.3155 35.4738 47.3182 35.521 47.3192 35.5687L39.0407 35.449Z" fill="#C63D14"/>
<path d="M62.0803 35.4258C62.0803 31.4295 59.2011 28.095 55.4083 27.3827L64.4806 0.625H21.5971L30.6831 27.437C27.0223 28.2518 24.2764 31.5233 24.2764 35.4258C24.2764 38.3565 25.8251 40.9308 28.1463 42.3773C27.0298 44.0405 25.7059 45.6057 24.1886 47.037C21.7826 49.307 19.1019 51.0285 16.2119 52.161C13.3011 50.3325 12.0706 46.8845 13.3486 43.8805L13.4486 43.6455C13.5111 43.4985 13.5738 43.351 13.6363 43.2035C16.8333 42.0887 19.1346 39.0455 19.1346 35.473C19.1346 30.9592 15.4623 27.2873 10.9486 27.2873C6.43485 27.2873 2.76285 30.9592 2.76285 35.473C2.76285 37.7512 3.6991 39.8143 5.2061 41.2998C4.93285 41.8823 4.6456 42.4742 4.35035 43.0807C2.97235 45.911 1.4106 49.119 0.81985 52.6813C-0.3534 59.756 1.53885 65.4115 6.1481 68.606C8.9451 70.5445 11.7853 71.307 14.6436 71.3067C20.0258 71.3065 25.4701 68.6027 30.7951 65.9577C34.6303 64.053 38.5958 62.0832 42.5131 61.1172C43.9706 60.7577 45.4704 60.5415 47.0581 60.3125C50.2066 59.8582 53.4626 59.3887 56.3466 57.7185C59.6893 55.7822 61.9779 52.5342 62.6249 48.8075C63.1804 45.6082 62.5116 42.4042 60.8811 39.6867C61.6413 38.4447 62.0803 36.9858 62.0803 35.4258ZM58.8668 35.4258C58.8668 38.1675 56.6363 40.3983 53.8943 40.3983C51.1528 40.3983 48.9221 38.1675 48.9221 35.4258C48.9221 32.684 51.1528 30.4535 53.8943 30.4535C56.6363 30.4535 58.8668 32.684 58.8668 35.4258ZM59.9978 3.8385L51.9866 27.4667C51.6393 27.55 51.3008 27.655 50.9721 27.7812L43.0581 11.6368L35.1211 27.6857C34.7781 27.5675 34.4251 27.4703 34.0631 27.3983L26.0793 3.8385H59.9978ZM32.4621 30.4535C35.2038 30.4535 37.4343 32.684 37.4343 35.4258C37.4343 38.1675 35.2038 40.3983 32.4621 40.3983C29.7206 40.3983 27.4898 38.1675 27.4898 35.4258C27.4898 32.684 29.7206 30.4535 32.4621 30.4535ZM10.9486 30.5007C13.6906 30.5007 15.9211 32.7312 15.9211 35.473C15.9211 38.2147 13.6906 40.4455 10.9486 40.4455C8.2071 40.4455 5.97635 38.2147 5.97635 35.473C5.97635 32.7312 8.2071 30.5007 10.9486 30.5007ZM59.4586 48.2578C58.9748 51.0448 57.2534 53.4795 54.7359 54.9375C52.3891 56.2967 49.5768 56.7025 46.5993 57.1317C45.0043 57.3617 43.3548 57.5997 41.7436 57.9972C37.4831 59.0477 33.3564 61.0975 29.3656 63.0798C21.3794 67.0465 14.4821 70.472 7.97885 65.9648C3.2151 62.6633 3.4351 56.5545 3.9901 53.207C4.50435 50.1058 5.89485 47.2495 7.2396 44.4873C7.47235 44.0093 7.69835 43.541 7.9201 43.0757C8.5871 43.3425 9.29635 43.5243 10.0356 43.6068C8.66685 48.1245 10.8196 53.0365 15.3378 55.3577L15.9561 55.6755L16.6111 55.4422C20.1831 54.1702 23.4744 52.1288 26.3939 49.3745C28.2811 47.5943 29.9028 45.6245 31.2363 43.5197C31.6363 43.58 32.0456 43.6118 32.4621 43.6118C36.9758 43.6118 40.6481 39.9398 40.6481 35.4258C40.6481 32.9983 39.5848 30.8153 37.9008 29.3148L43.0453 18.9118L48.2421 29.513C46.6828 31.0045 45.7086 33.1028 45.7086 35.4258C45.7086 39.9398 49.3806 43.6118 53.8943 43.6118C55.6286 43.6118 57.2374 43.0682 58.5624 42.1447C59.4824 44.028 59.8251 46.147 59.4586 48.2578Z" fill="white"/>
</g>
<defs>
<clipPath id="clip0_502_5">
<rect width="64" height="70.75" fill="white" transform="translate(0.480591 0.625)"/>
</clipPath>
</defs>
</svg>
