<svg width="65" height="64" viewBox="0 0 65 64" fill="none" xmlns="http://www.w3.org/2000/svg">
<path d="M45.3683 15.0195H47.9794C48.7115 15.0195 49.285 15.593 49.285 16.3251C49.285 17.0573 48.7115 17.6307 47.9794 17.6307H45.3683C44.6361 17.6307 44.0627 17.0573 44.0627 16.3251C44.0627 15.593 44.6361 15.0195 45.3683 15.0195Z" fill="#56B3B4"/>
<path d="M6.18487 56.8167H19.246C19.9782 56.8167 20.5516 57.3901 20.5516 58.1223C20.5516 58.8544 19.9782 59.4279 19.246 59.4279H6.18487C5.45271 59.4279 4.87927 58.8544 4.87927 58.1223C4.87927 57.3901 5.45271 56.8167 6.18487 56.8167Z" fill="#EA5E5E"/>
<path d="M37.532 35.9193H45.3682C46.1004 35.9193 46.6739 36.4927 46.6739 37.2249C46.6739 37.9571 46.1004 38.5306 45.3682 38.5306H37.532C36.7998 38.5306 36.2264 37.9571 36.2264 37.2249C36.2264 36.4927 36.7998 35.9193 37.532 35.9193Z" fill="#BF85BF"/>
<path d="M21.8572 35.9193H32.3071C33.0393 35.9193 33.6127 36.4927 33.6127 37.2249C33.6127 37.9571 33.0393 38.5306 32.3071 38.5306H21.8572C21.1251 38.5306 20.5516 37.9571 20.5516 37.2249C20.5516 36.4927 21.1276 35.9193 21.8572 35.9193Z" fill="#EA5E5E"/>
<path d="M6.18487 35.9193H16.6348C17.367 35.9193 17.9404 36.4927 17.9404 37.2249C17.9404 37.9571 17.367 38.5306 16.6348 38.5306H6.18487C5.45271 38.5306 4.87927 37.9571 4.87927 37.2249C4.87927 36.4927 5.45271 35.9193 6.18487 35.9193Z" fill="#56B3B4"/>
<path d="M6.18487 46.3668H19.246C19.9782 46.3668 20.5516 46.9402 20.5516 47.6723C20.5516 48.4044 19.9782 48.9778 19.246 48.9778H6.18487C5.45271 48.9778 4.87927 48.4044 4.87927 47.6723C4.87927 46.9427 5.45271 46.3668 6.18487 46.3668Z" fill="#BF85BF"/>
<path d="M6.18487 25.4695H19.246C19.9782 25.4695 20.5516 26.0429 20.5516 26.7751C20.5516 27.5072 19.9782 28.0807 19.246 28.0807H6.18487C5.45271 28.0807 4.87927 27.5072 4.87927 26.7751C4.87927 26.0429 5.45271 25.4695 6.18487 25.4695Z" fill="#BF85BF"/>
<path d="M19.246 9.79712H45.3681C46.1003 9.79712 46.6737 10.3706 46.6737 11.1027C46.6737 11.8349 46.1003 12.4083 45.3681 12.4083H19.246C18.5138 12.4083 17.9404 11.8349 17.9404 11.1027C17.9404 10.3706 18.5138 9.79712 19.246 9.79712Z" fill="#F7BA3E"/>
<path d="M6.18487 9.79712H14.021C14.7532 9.79712 15.3266 10.3706 15.3266 11.1027C15.3266 11.8349 14.7532 12.4083 14.021 12.4083H6.18487C5.45271 12.4083 4.87927 11.8349 4.87927 11.1027C4.87927 10.3706 5.45271 9.79712 6.18487 9.79712Z" fill="#EA5E5E"/>
<path d="M16.6348 51.5917H19.246C19.9782 51.5917 20.5516 52.1652 20.5516 52.8973C20.5516 53.6295 19.9782 54.2029 19.246 54.2029H16.6348C15.9026 54.2029 15.3292 53.6295 15.3292 52.8973C15.3266 52.1677 15.9026 51.5917 16.6348 51.5917Z" fill="#F7BA3E"/>
<path d="M16.6348 20.2445H19.246C19.9782 20.2445 20.5516 20.8179 20.5516 21.5501C20.5516 22.2823 19.9782 22.8557 19.246 22.8557H16.6348C15.9026 22.8557 15.3292 22.2823 15.3292 21.5501C15.3266 20.8205 15.9026 20.2445 16.6348 20.2445Z" fill="#56B3B4"/>
<path d="M6.18487 51.5917H11.4098C12.142 51.5917 12.7154 52.1652 12.7154 52.8973C12.7154 53.6295 12.142 54.2029 11.4098 54.2029H6.18487C5.45271 54.2029 4.87927 53.6295 4.87927 52.8973C4.87927 52.1677 5.45271 51.5917 6.18487 51.5917Z" fill="#56B3B4"/>
<path d="M6.18487 20.2445H11.4098C12.142 20.2445 12.7154 20.8179 12.7154 21.5501C12.7154 22.2823 12.142 22.8557 11.4098 22.8557H6.18487C5.45271 22.8557 4.87927 22.2823 4.87927 21.5501C4.87927 20.8205 5.45271 20.2445 6.18487 20.2445Z" fill="#F7BA3E"/>
<path opacity="0.5" d="M40.1433 51.5917H42.7545C43.4867 51.5917 44.0601 52.1652 44.0601 52.8973C44.0601 53.6295 43.4867 54.2029 42.7545 54.2029H40.1433C39.4111 54.2029 38.8377 53.6295 38.8377 52.8973C38.8377 52.1677 39.4137 51.5917 40.1433 51.5917Z" fill="#D0D4D8"/>
<path opacity="0.5" d="M24.471 51.5917H34.9184C35.6505 51.5917 36.224 52.1652 36.224 52.8973C36.224 53.6295 35.6505 54.2029 34.9184 54.2029H24.471C23.7388 54.2029 23.1653 53.6295 23.1653 52.8973C23.1653 52.1677 23.7388 51.5917 24.471 51.5917Z" fill="#D0D4D8"/>
<path opacity="0.5" d="M47.9795 51.5917H58.4294C59.1616 51.5917 59.735 52.1652 59.735 52.8973C59.735 53.6295 59.1616 54.2029 58.4294 54.2029H47.9795C47.2473 54.2029 46.6739 53.6295 46.6739 52.8973C46.6739 52.1677 47.2499 51.5917 47.9795 51.5917Z" fill="#D0D4D8"/>
<path d="M27.0822 30.6945H47.9794C48.7115 30.6945 49.285 31.2679 49.285 32.0001C49.285 32.7322 48.7115 33.3057 47.9794 33.3057H27.0822C26.35 33.3057 25.7766 32.7322 25.7766 32.0001C25.7766 31.2679 26.35 30.6945 27.0822 30.6945Z" fill="#56B3B4"/>
<path d="M14.0211 30.6945H21.8572C22.5894 30.6945 23.1628 31.2679 23.1628 32.0001C23.1628 32.7322 22.5894 33.3057 21.8572 33.3057H14.0211C13.2889 33.3057 12.7155 32.7322 12.7155 32.0001C12.7155 31.2679 13.2889 30.6945 14.0211 30.6945Z" fill="#F7BA3E"/>
<path d="M6.18487 30.6945H8.79607C9.52823 30.6945 10.1017 31.2679 10.1017 32.0001C10.1017 32.7322 9.52823 33.3057 8.79607 33.3057H6.18487C5.45271 33.3057 4.87927 32.7322 4.87927 32.0001C4.87927 31.2679 5.45271 30.6945 6.18487 30.6945Z" fill="#EA5E5E"/>
<path d="M29.6959 15.0195H40.1458C40.878 15.0195 41.4514 15.593 41.4514 16.3251C41.4514 17.0573 40.878 17.6307 40.1458 17.6307H29.6959C28.9638 17.6307 28.3903 17.0573 28.3903 16.3251C28.3903 15.593 28.9638 15.0195 29.6959 15.0195Z" fill="#BF85BF"/>
<path d="M6.18487 15.0195H24.471C25.2031 15.0195 25.7766 15.593 25.7766 16.3251C25.7766 17.0573 25.2031 17.6307 24.471 17.6307H6.18487C5.45271 17.6307 4.87927 17.0573 4.87927 16.3251C4.87927 15.593 5.45271 15.0195 6.18487 15.0195Z" fill="#56B3B4"/>
<path d="M14.0211 41.1417H37.5321C38.2643 41.1417 38.8377 41.7152 38.8377 42.4474C38.8377 43.1795 38.2643 43.753 37.5321 43.753H14.0211C13.2889 43.753 12.7155 43.1795 12.7155 42.4474C12.7155 41.7177 13.2889 41.1417 14.0211 41.1417Z" fill="#F7BA3E"/>
<path d="M6.18487 41.1417H8.79607C9.52823 41.1417 10.1017 41.7152 10.1017 42.4474C10.1017 43.1795 9.52823 43.753 8.79607 43.753H6.18487C5.45271 43.753 4.87927 43.1795 4.87927 42.4474C4.87927 41.7177 5.45271 41.1417 6.18487 41.1417Z" fill="#BF85BF"/>
<path d="M37.532 20.2445H50.5932C51.3254 20.2445 51.8988 20.8179 51.8988 21.5501C51.8988 22.2823 51.3254 22.8557 50.5932 22.8557H37.532C36.7998 22.8557 36.2264 22.2823 36.2264 21.5501C36.2264 20.8205 36.7998 20.2445 37.532 20.2445Z" fill="#EA5E5E"/>
<path d="M37.532 25.4695H50.5932C51.3254 25.4695 51.8988 26.0429 51.8988 26.7751C51.8988 27.5072 51.3254 28.0807 50.5932 28.0807H37.532C36.7998 28.0807 36.2264 27.5072 36.2264 26.7751C36.2264 26.0429 36.7998 25.4695 37.532 25.4695Z" fill="#F7BA3E"/>
<path d="M6.18487 4.57217H37.5321C38.2643 4.57217 38.8377 5.14561 38.8377 5.87777C38.8377 6.60993 38.2643 7.18337 37.5321 7.18337H6.18487C5.45271 7.18337 4.87927 6.60993 4.87927 5.87777C4.87927 5.14561 5.45271 4.57217 6.18487 4.57217Z" fill="#56B3B4"/>
<path opacity="0.5" d="M42.7571 4.57217H58.4294C59.1616 4.57217 59.735 5.14561 59.735 5.87777C59.735 6.60993 59.1616 7.18337 58.4294 7.18337H42.7571C42.0249 7.18337 41.4515 6.60993 41.4515 5.87777C41.4515 5.14561 42.0249 4.57217 42.7571 4.57217Z" fill="#D0D4D8"/>
<path opacity="0.5" d="M42.7571 41.1417H47.982C48.7142 41.1417 49.2876 41.7152 49.2876 42.4474C49.2876 43.1795 48.7142 43.753 47.982 43.753H42.7571C42.0249 43.753 41.4515 43.1795 41.4515 42.4474C41.4489 41.7177 42.0249 41.1417 42.7571 41.1417Z" fill="#D0D4D8"/>
<path opacity="0.5" d="M53.2044 41.1417H58.4294C59.1615 41.1417 59.735 41.7152 59.735 42.4474C59.735 43.1795 59.1615 43.753 58.4294 43.753H53.2044C52.4722 43.753 51.8988 43.1795 51.8988 42.4474C51.8988 41.7177 52.4748 41.1417 53.2044 41.1417Z" fill="#D0D4D8"/>
<path opacity="0.5" d="M50.5932 35.9193H58.4294C59.1615 35.9193 59.735 36.4927 59.735 37.2249C59.735 37.9571 59.1615 38.5306 58.4294 38.5306H50.5932C49.861 38.5306 49.2876 37.9571 49.2876 37.2249C49.2876 36.4927 49.861 35.9193 50.5932 35.9193Z" fill="#D0D4D8"/>
<path opacity="0.5" d="M50.5932 9.79712H58.4294C59.1615 9.79712 59.735 10.3706 59.735 11.1027C59.735 11.8349 59.1615 12.4083 58.4294 12.4083H50.5932C49.861 12.4083 49.2876 11.8349 49.2876 11.1027C49.2876 10.3706 49.861 9.79712 50.5932 9.79712Z" fill="#D0D4D8"/>
<path opacity="0.5" d="M53.2044 30.6945H58.4294C59.1615 30.6945 59.735 31.2679 59.735 32.0001C59.735 32.7322 59.1615 33.3057 58.4294 33.3057H53.2044C52.4722 33.3057 51.8988 32.7322 51.8988 32.0001C51.8988 31.2679 52.4748 30.6945 53.2044 30.6945Z" fill="#D0D4D8"/>
<path opacity="0.5" d="M53.2044 15.0195H58.4294C59.1615 15.0195 59.735 15.593 59.735 16.3251C59.735 17.0573 59.1615 17.6307 58.4294 17.6307H53.2044C52.4722 17.6307 51.8988 17.0573 51.8988 16.3251C51.8988 15.593 52.4748 15.0195 53.2044 15.0195Z" fill="#D0D4D8"/>
<path opacity="0.5" d="M55.8181 20.2445H58.4293C59.1614 20.2445 59.7348 20.8179 59.7348 21.5501C59.7348 22.2823 59.1614 22.8557 58.4293 22.8557H55.8181C55.086 22.8557 54.5126 22.2823 54.5126 21.5501C54.51 20.8205 55.086 20.2445 55.8181 20.2445Z" fill="#D0D4D8"/>
<path opacity="0.5" d="M55.8181 25.4695H58.4293C59.1614 25.4695 59.7348 26.0429 59.7348 26.7751C59.7348 27.5072 59.1614 28.0807 58.4293 28.0807H55.8181C55.086 28.0807 54.5126 27.5072 54.5126 26.7751C54.51 26.0429 55.086 25.4695 55.8181 25.4695Z" fill="#D0D4D8"/>
<path opacity="0.5" d="M34.9183 46.3668H58.4294C59.1615 46.3668 59.735 46.9402 59.735 47.6723C59.735 48.4044 59.1615 48.9778 58.4294 48.9778H34.9183C34.1862 48.9778 33.6127 48.4044 33.6127 47.6723C33.6127 46.9427 34.1887 46.3668 34.9183 46.3668Z" fill="#D0D4D8"/>
<path opacity="0.5" d="M24.471 46.3668H29.696C30.4281 46.3668 31.0016 46.9402 31.0016 47.6723C31.0016 48.4044 30.4281 48.9778 29.696 48.9778H24.471C23.7388 48.9778 23.1653 48.4044 23.1653 47.6723C23.1653 46.9427 23.7388 46.3668 24.471 46.3668Z" fill="#D0D4D8"/>
<path opacity="0.5" d="M45.3683 56.8167H58.4294C59.1616 56.8167 59.735 57.3901 59.735 58.1223C59.735 58.8544 59.1616 59.4279 58.4294 59.4279H45.3683C44.6361 59.4279 44.0627 58.8544 44.0627 58.1223C44.0627 57.3901 44.6361 56.8167 45.3683 56.8167Z" fill="#D0D4D8"/>
<path opacity="0.5" d="M24.4709 56.8167H40.1432C40.8754 56.8167 41.4488 57.3901 41.4488 58.1223C41.4488 58.8544 40.8754 59.4279 40.1432 59.4279H24.4709C23.7388 59.4279 23.1653 58.8544 23.1653 58.1223C23.1653 57.3901 23.7388 56.8167 24.4709 56.8167Z" fill="#D0D4D8"/>
<path opacity="0.5" d="M24.471 20.2445H32.3072C33.0393 20.2445 33.6128 20.8179 33.6128 21.5501C33.6128 22.2823 33.0393 22.8557 32.3072 22.8557H24.471C23.7388 22.8557 23.1653 22.2823 23.1653 21.5501C23.1653 20.8205 23.7388 20.2445 24.471 20.2445Z" fill="#D0D4D8"/>
<path opacity="0.5" d="M24.471 25.4695H32.3072C33.0393 25.4695 33.6128 26.0429 33.6128 26.7751C33.6128 27.5072 33.0393 28.0807 32.3072 28.0807H24.471C23.7388 28.0807 23.1653 27.5072 23.1653 26.7751C23.1653 26.0429 23.7388 25.4695 24.471 25.4695Z" fill="#D0D4D8"/>
</svg>
