<svg width="65" height="58" viewBox="0 0 65 58" fill="none" xmlns="http://www.w3.org/2000/svg">
<path d="M64.8939 29.0066C64.8939 24.7482 59.5762 20.7126 51.4232 18.21C53.3047 9.87673 52.4685 3.2468 48.784 1.12417C47.9347 0.626269 46.9417 0.390422 45.8572 0.390422V3.31231C46.4583 3.31231 46.9417 3.43023 47.3467 3.65298C49.1237 4.67498 49.8945 8.56647 49.2935 13.5717C49.1498 14.8033 48.9146 16.1005 48.6272 17.4239C46.0663 16.7949 43.2702 16.3101 40.3305 15.9957C38.5666 13.5717 36.7374 11.3704 34.8951 9.44434C39.1545 5.47425 43.1526 3.29921 45.8703 3.29921V0.377319C42.2772 0.377319 37.5736 2.94544 32.8177 7.40033C28.0618 2.97164 23.3581 0.42973 19.7651 0.42973V3.35162C22.4697 3.35162 26.4808 5.51355 30.7402 9.45745C28.911 11.3835 27.0819 13.5717 25.3441 15.9957C22.3913 16.3101 19.5952 16.7949 17.0343 17.437C16.7338 16.1267 16.5117 14.8557 16.3549 13.6372C15.7408 8.63198 16.4987 4.7405 18.2625 3.70539C18.6545 3.46954 19.1641 3.36472 19.7651 3.36472V0.442833C18.6676 0.442833 17.6746 0.67868 16.8122 1.17658C13.1408 3.29921 12.3176 9.91604 14.2122 18.2231C6.0853 20.7388 0.793701 24.7613 0.793701 29.0066C0.793701 33.2649 6.11143 37.3006 14.2644 39.8032C12.383 48.1364 13.2192 54.7664 16.9037 56.889C17.753 57.3869 18.7459 57.6227 19.8435 57.6227C23.4365 57.6227 28.1402 55.0546 32.8961 50.5997C37.652 55.0284 42.3556 57.5703 45.9487 57.5703C47.0462 57.5703 48.0392 57.3345 48.9015 56.8366C52.573 54.714 53.3961 48.0971 51.5016 39.7901C59.6023 37.2875 64.8939 33.2518 64.8939 29.0066ZM47.8824 20.2671C47.399 21.9574 46.798 23.7 46.1185 25.4427C45.5829 24.3945 45.021 23.3462 44.4069 22.298C43.8059 21.2498 43.1657 20.2278 42.5255 19.232C44.3808 19.5072 46.1708 19.8478 47.8824 20.2671ZM41.8983 34.2214C40.8792 35.9903 39.834 37.6674 38.7495 39.2266C36.8027 39.397 34.8298 39.4887 32.8438 39.4887C30.8709 39.4887 28.898 39.397 26.9643 39.2397C25.8798 37.6805 24.8215 36.0165 23.8024 34.2607C22.8094 32.5443 21.9078 30.8016 21.0847 29.0459C21.8948 27.2901 22.8094 25.5344 23.7893 23.8179C24.8084 22.0491 25.8537 20.3719 26.9381 18.8127C28.8849 18.6424 30.8578 18.5507 32.8438 18.5507C34.8167 18.5507 36.7897 18.6424 38.7234 18.7996C39.8078 20.3588 40.8661 22.0229 41.8853 23.7786C42.8783 25.4951 43.7798 27.2377 44.6029 28.9935C43.7798 30.7492 42.8783 32.505 41.8983 34.2214ZM46.1185 32.5181C46.8241 34.2738 47.4251 36.0296 47.9216 37.7329C46.21 38.1522 44.4069 38.506 42.5386 38.7812C43.1788 37.7723 43.819 36.7371 44.42 35.6758C45.021 34.6276 45.5829 33.5663 46.1185 32.5181ZM32.87 46.4986C31.6548 45.2408 30.4397 43.8388 29.2377 42.3058C30.4136 42.3582 31.6156 42.3975 32.8308 42.3975C34.0589 42.3975 35.274 42.3713 36.463 42.3058C35.2871 43.8388 34.072 45.2408 32.87 46.4986ZM23.1491 38.7812C21.2938 38.506 19.5038 38.1653 17.7922 37.746C18.2756 36.0558 18.8766 34.3132 19.556 32.5705C20.0917 33.6187 20.6535 34.6669 21.2676 35.7151C21.8817 36.7633 22.5089 37.7854 23.1491 38.7812ZM32.8046 11.5146C34.0197 12.7724 35.2348 14.1744 36.4369 15.7074C35.261 15.655 34.0589 15.6157 32.8438 15.6157C31.6156 15.6157 30.4005 15.6419 29.2116 15.7074C30.3875 14.1744 31.6026 12.7724 32.8046 11.5146ZM23.136 19.232C22.4958 20.2409 21.8556 21.276 21.2546 22.3373C20.6535 23.3856 20.0917 24.4338 19.556 25.482C18.8505 23.7262 18.2495 21.9705 17.753 20.2671C19.4646 19.8609 21.2676 19.5072 23.136 19.232ZM11.3116 35.6365C6.68633 33.658 3.69428 31.0637 3.69428 29.0066C3.69428 26.9495 6.68633 24.342 11.3116 22.3766C12.4352 21.8919 13.6634 21.4595 14.9308 21.0533C15.6755 23.6214 16.6554 26.2943 17.8705 29.0328C16.6685 31.7581 15.7016 34.418 14.97 36.973C13.6765 36.5668 12.4483 36.1213 11.3116 35.6365ZM18.3409 54.3602C16.564 53.3382 15.7931 49.4467 16.3941 44.4415C16.5378 43.2098 16.773 41.9127 17.0605 40.5893C19.6214 41.2182 22.4174 41.703 25.3572 42.0175C27.1211 44.4415 28.9502 46.6427 30.7925 48.5688C26.5331 52.5389 22.535 54.714 19.8173 54.714C19.2294 54.7009 18.7329 54.5829 18.3409 54.3602ZM49.3327 44.376C49.9468 49.3812 49.189 53.2727 47.4251 54.3078C47.0331 54.5436 46.5236 54.6484 45.9226 54.6484C43.218 54.6484 39.2068 52.4865 34.9474 48.5426C36.7766 46.6165 38.6058 44.4284 40.3435 42.0044C43.2964 41.6899 46.0924 41.2051 48.6533 40.5631C48.9538 41.8865 49.189 43.1574 49.3327 44.376ZM54.363 35.6365C53.2393 36.1213 52.0112 36.5537 50.7438 36.9599C49.9991 34.3918 49.0191 31.7188 47.804 28.9804C49.0061 26.255 49.9729 23.5952 50.7046 21.0402C51.9981 21.4464 53.2263 21.8919 54.3761 22.3766C59.0013 24.3551 61.9934 26.9495 61.9934 29.0066C61.9803 31.0637 58.9883 33.6711 54.363 35.6365Z" fill="#61DAFB"/>
<path d="M32.8307 34.9945C36.1284 34.9945 38.8017 32.3136 38.8017 29.0066C38.8017 25.6996 36.1284 23.0187 32.8307 23.0187C29.533 23.0187 26.8597 25.6996 26.8597 29.0066C26.8597 32.3136 29.533 34.9945 32.8307 34.9945Z" fill="#61DAFB"/>
</svg>
