<svg width="65" height="62" viewBox="0 0 65 62" fill="none" xmlns="http://www.w3.org/2000/svg">
<g clip-path="url(#clip0)">
<path d="M45.2392 42.9333C47.6009 42.6888 49.3927 40.6528 49.3112 38.2093C49.2299 35.766 47.1937 33.8113 44.7504 33.8113H44.5877C42.0627 33.8928 40.1082 36.0103 40.1897 38.535C40.2712 39.7568 40.7597 40.8155 41.4927 41.5485C38.7237 47.0055 34.4887 50.9963 28.1362 54.3355C23.8197 56.616 19.3404 57.4305 14.8612 56.8605C11.1962 56.3718 8.34567 54.743 6.55367 52.055C3.94767 48.0643 3.70342 43.7475 5.90242 39.431C7.44992 36.336 9.89292 34.0555 11.4404 32.9153C11.1147 31.8565 10.6259 30.0648 10.3817 28.7618C-1.42758 37.3135 -0.205832 48.8788 3.37767 54.3355C6.06517 58.408 11.5219 60.9328 17.5487 60.9328C19.1774 60.9328 20.8062 60.7698 22.4352 60.3628C32.8599 58.3265 40.7599 52.1365 45.2392 42.9333ZM59.5732 32.834C53.3834 25.5853 44.2619 21.5945 33.8372 21.5945H32.5342C31.8012 20.1285 30.2537 19.151 28.5434 19.151H28.3804C25.8559 19.2325 23.9014 21.35 23.9827 23.875C24.0642 26.3183 26.1002 28.273 28.5434 28.273H28.7062C30.4979 28.1915 32.0454 27.0513 32.6969 25.5038H34.1629C40.3527 25.5038 46.2164 27.2955 51.5104 30.7978C55.5824 33.4855 58.5144 36.9878 60.1432 41.2228C61.5277 44.6435 61.4462 47.9828 59.9802 50.8335C57.6999 55.15 53.8722 57.512 48.8227 57.512C45.5649 57.512 42.4702 56.5345 40.8412 55.8015C39.9454 56.616 38.3164 57.919 37.1762 58.7338C40.6784 60.3625 44.2619 61.2585 47.6824 61.2585C55.5009 61.2585 61.2834 56.9418 63.4824 52.6253C65.8442 47.9013 65.6812 39.7568 59.5732 32.834ZM18.2002 44.3175C18.2817 46.761 20.3177 48.7155 22.7609 48.7155H22.9239C25.4487 48.6343 27.4032 46.5165 27.3217 43.9918C27.2404 41.5483 25.2042 39.5938 22.7609 39.5938H22.5982C22.4352 39.5938 22.1907 39.5938 22.0282 39.675C18.6889 34.1368 17.3044 28.11 17.7932 21.5943C18.1187 16.7075 19.7477 12.4723 22.5982 8.97C24.9599 5.9565 29.5207 4.4905 32.6157 4.40925C41.2484 4.24625 44.9132 14.997 45.1577 19.3138C46.2164 19.558 48.0082 20.1283 49.2299 20.5355C48.2524 7.3415 40.1082 0.5 32.2899 0.5C24.9599 0.5 18.2002 5.794 15.5124 13.6128C11.7662 24.0378 14.2094 34.0555 18.7702 41.9558C18.3632 42.5258 18.1187 43.4218 18.2002 44.3178V44.3175Z" fill="#764ABC"/>
</g>
<defs>
<clipPath id="clip0">
<rect width="64" height="61.0048" fill="white" transform="translate(0.893799 0.497559)"/>
</clipPath>
</defs>
</svg>
