<svg width="135" height="52" viewBox="0 0 135 52" fill="none" xmlns="http://www.w3.org/2000/svg">
<path d="M69.6979 16.8924L76.1207 16.4701C76.2672 17.5383 76.5358 18.3333 76.9754 18.9046C77.6836 19.7989 78.6605 20.2461 79.9548 20.2461C80.9072 20.2461 81.6643 20.0225 82.1771 19.5505C82.6655 19.1779 82.9586 18.5817 82.9586 17.9606C82.9586 17.3644 82.6899 16.7931 82.2259 16.4205C81.7375 15.9733 80.5897 15.5262 78.7826 15.1287C75.8276 14.458 73.703 13.5637 72.4575 12.4209C71.212 11.3528 70.5038 9.78772 70.5526 8.12333C70.5526 6.98061 70.8945 5.83789 71.5295 4.89391C72.2621 3.82572 73.2634 2.9811 74.46 2.50911C75.7543 1.93775 77.5615 1.63965 79.8327 1.63965C82.6167 1.63965 84.7413 2.16132 86.2066 3.22952C87.6719 4.27287 88.551 5.9621 88.8197 8.27238L82.4702 8.64501C82.2992 7.65134 81.9573 6.93093 81.3956 6.45894C80.8339 5.98694 80.1013 5.76337 79.1489 5.76337C78.3674 5.76337 77.7813 5.93726 77.3906 6.2602C77.0242 6.5583 76.78 7.00545 76.8045 7.50229C76.8045 7.87491 76.9998 8.2227 77.2929 8.44627C77.6104 8.74437 78.3674 9.01763 79.564 9.26605C82.519 9.91193 84.6192 10.5578 85.9135 11.2285C87.2079 11.8993 88.1359 12.719 88.6975 13.6879C89.2837 14.6815 89.5767 15.8243 89.5523 16.9918C89.5523 18.383 89.1615 19.7741 88.3801 20.9416C87.5742 22.1589 86.4508 23.1029 85.1321 23.6742C83.7401 24.2953 81.9817 24.6182 79.8815 24.6182C76.1695 24.6182 73.6053 23.8978 72.1644 22.4321C70.7236 20.9665 69.8689 19.1282 69.6979 16.8924ZM1.53853 24.2456V2.03712H12.7967C14.8725 2.03712 16.4843 2.21101 17.5832 2.58363C18.6577 2.93142 19.6102 3.65183 20.2451 4.62065C20.9533 5.68884 21.2952 6.93093 21.2708 8.2227C21.3441 10.4088 20.2451 12.4955 18.3647 13.5885C17.6321 14.0108 16.8262 14.3089 15.9958 14.458C16.6064 14.6319 17.2169 14.93 17.7542 15.2777C18.1693 15.6255 18.5112 16.023 18.8287 16.4453C19.195 16.8676 19.5125 17.3396 19.7811 17.8364L23.0535 24.2704H15.3853L11.771 17.439C11.307 16.5695 10.9162 15.9981 10.5499 15.7249C10.0615 15.3771 9.4754 15.2032 8.88929 15.2032H8.30318V24.2207H1.53853V24.2456ZM8.30318 11.0298H11.1605C11.771 10.9801 12.3571 10.8808 12.9432 10.7317C13.3828 10.6572 13.7735 10.4088 14.0421 10.0361C14.7015 9.14184 14.6038 7.87491 13.7979 7.10482C13.3584 6.7322 12.5036 6.53346 11.2826 6.53346H8.30318V11.0298ZM0 43.2743L6.42276 42.852C6.56928 43.9202 6.83792 44.7151 7.2775 45.2865C7.96129 46.1808 8.96255 46.6528 10.2569 46.6528C11.2093 46.6528 11.9664 46.4292 12.4792 45.9572C12.9676 45.5598 13.2607 44.9884 13.2607 44.3674C13.2607 43.7712 12.992 43.1998 12.528 42.8272C12.0396 42.38 10.8918 41.9329 9.06024 41.5354C6.10528 40.8647 3.98064 39.9704 2.73517 38.8277C1.48969 37.7595 0.781476 36.1944 0.830318 34.5301C0.830318 33.3873 1.17221 32.2446 1.80716 31.3006C2.5398 30.2324 3.54106 29.3878 4.7377 28.9158C6.03202 28.3445 7.83918 28.0464 10.1103 28.0464C12.8944 28.0464 15.019 28.568 16.4843 29.6362C17.9495 30.7044 18.8043 32.3688 19.0729 34.6791L12.7234 35.0517C12.5525 34.0581 12.2106 33.3377 11.6489 32.8657C11.1116 32.3937 10.3546 32.1701 9.40214 32.1949C8.62066 32.1949 8.03455 32.3688 7.64381 32.7166C7.25308 33.0147 7.03329 33.4619 7.05771 33.9587C7.05771 34.3313 7.25308 34.6791 7.54613 34.9027C7.8636 35.2008 8.62066 35.474 9.81729 35.7225C12.7723 36.3683 14.8725 37.0142 16.1668 37.6849C17.4611 38.3557 18.3891 39.1754 18.9508 40.1443C19.5369 41.1379 19.83 42.2807 19.83 43.4234C19.83 44.8145 19.4148 46.1808 18.6577 47.3484C17.8518 48.5656 16.7285 49.5096 15.4097 50.081C14.0177 50.702 12.2594 51.0249 10.1592 51.0249C6.44718 51.0249 3.88296 50.3045 2.44211 48.8389C1.00127 47.3484 0.195369 45.5101 0 43.2743H0Z" fill="white"/>
<path d="M32.4801 41.5352L38.3901 43.3486C38.0726 44.864 37.4132 46.3048 36.5096 47.5717C35.6793 48.6896 34.5804 49.5591 33.3349 50.1304C32.065 50.7018 30.4532 50.9999 28.4995 50.9999C26.1306 50.9999 24.177 50.6521 22.6873 49.9565C21.1732 49.261 19.8788 48.0189 18.7799 46.2551C17.6809 44.4913 17.1437 42.2307 17.1437 39.4733C17.1437 35.7967 18.0961 32.9648 20.0254 31.0023C21.9546 29.0398 24.6654 28.0461 28.182 28.0461C30.9416 28.0461 33.0907 28.6175 34.678 29.7354C36.241 30.8781 37.4132 32.617 38.1947 34.9521L32.2359 36.2936C32.0894 35.7719 31.8696 35.2502 31.5766 34.8031C31.2102 34.2814 30.7462 33.8839 30.1846 33.5858C29.6229 33.2877 28.9879 33.1635 28.353 33.1635C26.8144 33.1635 25.6422 33.7846 24.8363 35.0515C24.2258 35.9706 23.9083 37.4363 23.9083 39.4236C23.9083 41.883 24.2746 43.5722 25.0073 44.4913C25.7399 45.4105 26.7656 45.8576 28.1088 45.8576C29.4031 45.8576 30.3799 45.485 31.0393 44.7646C31.6987 43.9945 32.1871 42.9263 32.4801 41.5352ZM46.2781 28.4188H53.0183V36.1942H60.3935V28.4188H67.1826V50.6272H60.3935V41.6346H53.0183V50.6272H46.2781V28.4188V28.4188Z" fill="white"/>
<path d="M66.2545 39.5232C66.2545 35.8963 67.2558 33.0643 69.2339 31.0522C71.212 29.04 73.996 28.0215 77.5371 28.0215C81.1758 28.0215 83.9598 29.0152 85.9379 31.0025C87.9161 32.9898 88.8929 35.7721 88.8929 39.3493C88.8929 41.9577 88.4533 44.0692 87.5986 45.7336C86.7683 47.3732 85.4739 48.7146 83.8866 49.6089C82.2504 50.5281 80.2234 51 77.8057 51C75.3392 51 73.3122 50.6026 71.7004 49.8076C70.0398 48.963 68.6722 47.6464 67.7686 46.0317C66.7674 44.2928 66.2545 42.1316 66.2545 39.5232ZM72.9947 39.548C72.9947 41.7838 73.4099 43.3985 74.2158 44.3922C75.0217 45.361 76.1451 45.8578 77.5615 45.8578C79.0023 45.8578 80.1257 45.3858 80.9316 44.417C81.7375 43.4482 82.1282 41.7341 82.1282 39.2499C82.1282 37.1632 81.7131 35.623 80.8828 34.6791C80.0525 33.7102 78.9291 33.2382 77.5127 33.2382C76.2672 33.1886 75.0705 33.7351 74.2402 34.7039C73.4099 35.6727 72.9947 37.2874 72.9947 39.548V39.548ZM95.8041 39.5232C95.8041 35.8963 96.8053 33.0643 98.7835 31.0522C100.762 29.04 103.546 28.0215 107.087 28.0215C110.725 28.0215 113.534 29.0152 115.488 31.0025C117.441 32.9898 118.442 35.7721 118.442 39.3493C118.442 41.9577 118.003 44.0692 117.148 45.7336C116.318 47.3732 115.024 48.7146 113.436 49.6089C111.8 50.5281 109.773 51 107.355 51C104.889 51 102.862 50.6026 101.25 49.8076C99.5894 48.963 98.2218 47.6464 97.3182 46.0317C96.3169 44.2928 95.8041 42.1316 95.8041 39.5232V39.5232ZM102.544 39.548C102.544 41.7838 102.959 43.3985 103.765 44.3922C104.571 45.361 105.695 45.8578 107.111 45.8578C108.552 45.8578 109.675 45.3858 110.481 44.417C111.287 43.4482 111.678 41.7341 111.678 39.2499C111.678 37.1632 111.263 35.623 110.432 34.6791C109.602 33.7102 108.479 33.2382 107.062 33.2382C105.817 33.1886 104.596 33.7351 103.79 34.7039C102.959 35.6727 102.544 37.2874 102.544 39.548V39.548Z" fill="white"/>
<path d="M117.734 28.4189H124.474V45.1622H135V50.6274H117.71V28.4189H117.734Z" fill="white"/>
<path d="M110.305 27.1373C117.091 21.9355 119.184 13.1175 114.979 7.44182C110.774 1.76616 101.865 1.38205 95.0786 6.5839C88.2926 11.7858 86.2001 20.6037 90.4047 26.2794C94.6094 31.9551 103.519 32.3392 110.305 27.1373Z" fill="black"/>
<path d="M110.305 27.1373C117.091 21.9355 119.184 13.1175 114.979 7.44182C110.774 1.76616 101.865 1.38205 95.0786 6.5839C88.2926 11.7858 86.2001 20.6037 90.4047 26.2794C94.6094 31.9551 103.519 32.3392 110.305 27.1373Z" fill="black"/>
<path d="M110.305 27.1373C117.091 21.9355 119.184 13.1175 114.979 7.44182C110.774 1.76615 101.865 1.38205 95.0786 6.5839C88.2926 11.7858 86.2001 20.6037 90.4047 26.2794C94.6094 31.9551 103.519 32.3392 110.305 27.1373Z" fill="black" stroke="white" stroke-width="4" stroke-miterlimit="10"/>
<path d="M110.305 27.1373C117.091 21.9355 119.184 13.1175 114.979 7.44182C110.774 1.76616 101.865 1.38205 95.0786 6.5839C88.2926 11.7858 86.2001 20.6037 90.4047 26.2794C94.6094 31.9551 103.519 32.3392 110.305 27.1373Z" stroke="white" stroke-width="4" stroke-miterlimit="10"/>
<path d="M110.305 27.1373C117.091 21.9355 119.184 13.1175 114.979 7.44182C110.774 1.76615 101.865 1.38205 95.0786 6.5839C88.2926 11.7858 86.2001 20.6037 90.4047 26.2794C94.6094 31.9551 103.519 32.3392 110.305 27.1373Z" fill="black" stroke="white" stroke-width="4" stroke-miterlimit="10"/>
<path d="M110.305 27.1373C117.091 21.9355 119.184 13.1175 114.979 7.44182C110.774 1.76616 101.865 1.38205 95.0786 6.5839C88.2926 11.7858 86.2001 20.6037 90.4047 26.2794C94.6094 31.9551 103.519 32.3392 110.305 27.1373Z" stroke="white" stroke-width="4" stroke-miterlimit="10"/>
<path d="M95.8286 15.228L98.2707 13.4891L101.274 17.8364C101.787 18.532 102.178 19.2772 102.471 20.097C102.642 20.718 102.593 21.3887 102.349 21.9849C102.032 22.7302 101.519 23.3512 100.835 23.7984C100.029 24.3697 99.3452 24.6927 98.7591 24.7921C98.1974 24.8914 97.6113 24.7921 97.074 24.5436C96.4879 24.2455 95.9751 23.8232 95.5844 23.2767L97.6846 21.2894C97.8555 21.5626 98.0753 21.8111 98.3195 22.0098C98.4905 22.134 98.6858 22.2085 98.9056 22.2085C99.0766 22.2085 99.2475 22.134 99.3696 22.0346C99.6138 21.8856 99.7848 21.5875 99.7604 21.2894C99.6871 20.8671 99.5162 20.4448 99.2475 20.1218L95.8286 15.228V15.228ZM103.155 17.9854L105.377 16.1968C105.621 16.4949 105.939 16.7185 106.281 16.8427C106.769 16.9918 107.282 16.8924 107.697 16.5695C107.99 16.3707 108.235 16.0975 108.332 15.7497C108.479 15.3025 108.235 14.8057 107.795 14.6566C107.722 14.6318 107.648 14.607 107.575 14.607C107.282 14.5821 106.769 14.7063 106.012 15.0293C104.767 15.5509 103.79 15.7497 103.057 15.6752C102.349 15.6006 101.69 15.228 101.299 14.607C101.006 14.1847 100.859 13.6878 100.835 13.191C100.835 12.6196 100.981 12.0483 101.299 11.5763C101.763 10.9055 102.325 10.3342 103.008 9.88704C104.034 9.16663 104.938 8.81885 105.719 8.81885C106.501 8.81885 107.233 9.19147 107.917 9.96157L105.719 11.7253C105.28 11.154 104.449 11.0298 103.888 11.4769L103.814 11.5514C103.57 11.7005 103.399 11.9241 103.301 12.1973C103.228 12.3961 103.277 12.6196 103.399 12.7935C103.497 12.9177 103.643 13.0171 103.814 13.0171C104.01 13.0419 104.352 12.9426 104.84 12.719C106.061 12.1973 106.989 11.8992 107.624 11.7999C108.161 11.7005 108.723 11.7502 109.236 11.9737C109.7 12.1725 110.091 12.5203 110.359 12.9426C110.701 13.4394 110.896 14.0356 110.921 14.6566C110.945 15.3025 110.774 15.9236 110.432 16.4701C109.993 17.1408 109.431 17.7122 108.772 18.1593C107.429 19.1033 106.33 19.5008 105.451 19.3517C104.498 19.2027 103.717 18.7058 103.155 17.9854V17.9854Z" fill="white"/>
</svg>
