<svg width="81" height="60" viewBox="0 0 81 60" fill="none" xmlns="http://www.w3.org/2000/svg">
<g clip-path="url(#clip0)">
<path d="M69.6354 34.4825C66.8461 34.4971 64.4218 35.1689 62.3919 36.162C61.6471 34.687 60.9023 33.3726 60.7709 32.4088C60.6248 31.2843 60.4496 30.5979 60.6248 29.2543C60.8001 27.9108 61.5887 25.9977 61.5741 25.8516C61.5595 25.7056 61.3988 25.0192 59.7924 25.0046C58.186 24.99 56.7986 25.3113 56.638 25.7348C56.4773 26.1583 56.1706 27.1222 55.9662 28.1152C55.6887 29.5756 52.7533 34.7892 51.0739 37.5201C50.5336 36.4541 50.0662 35.5194 49.964 34.7746C49.818 33.6501 49.6427 32.9637 49.818 31.6202C49.9932 30.2766 50.7818 28.3635 50.7672 28.2175C50.7526 28.0714 50.592 27.3851 48.9855 27.3705C47.3791 27.3558 45.9917 27.6771 45.8311 28.1006C45.6705 28.5242 45.4952 29.5172 45.1593 30.4811C44.8234 31.4449 40.9242 40.1488 39.9019 42.3978C39.3762 43.5515 38.9235 44.4716 38.6022 45.0995C38.6022 45.0995 38.5876 45.1434 38.5438 45.2164C38.2663 45.7567 38.1057 46.0488 38.1057 46.0488C38.1057 46.0488 38.1057 46.0488 38.1057 46.0634C37.8866 46.4577 37.6529 46.8228 37.5361 46.8228C37.4485 46.8228 37.2878 45.7713 37.5653 44.3401C38.1495 41.3171 39.5368 36.6147 39.5222 36.4541C39.5222 36.3664 39.7851 35.5486 38.6168 35.1251C37.4777 34.7016 37.0688 35.4026 36.9666 35.4026C36.8643 35.4026 36.7913 35.6508 36.7913 35.6508C36.7913 35.6508 38.0618 30.3642 34.3671 30.3642C32.0597 30.3642 28.876 32.8907 27.2988 35.1689C26.3057 35.7093 24.1882 36.863 21.9246 38.1043C21.0629 38.5862 20.1721 39.0681 19.3397 39.5209C19.2813 39.4625 19.2229 39.3894 19.1644 39.331C14.6957 34.5556 6.42986 31.1821 6.78036 24.771C6.91179 22.4343 7.715 16.3007 22.6548 8.85274C34.9512 2.79214 44.7358 4.47158 46.4299 8.19557C48.8541 13.5114 41.1871 23.3836 28.4817 24.8148C23.6332 25.3551 21.0921 23.4858 20.4496 22.7848C19.7778 22.0546 19.6756 22.0108 19.4273 22.1569C19.0184 22.3759 19.2813 23.0331 19.4273 23.4128C19.807 24.4059 21.3696 26.1583 24.0129 27.02C26.3495 27.7794 32.0304 28.2029 38.9089 25.545C46.6051 22.5658 52.6219 14.2854 50.8548 7.34854C49.0878 0.309479 37.4047 -2.01254 26.3495 1.9159C19.7778 4.25252 12.6511 7.9327 7.52515 12.7228C1.43534 18.4183 0.471484 23.369 0.865789 25.4427C2.28236 32.8031 12.4321 37.5932 16.4919 41.1419C16.2875 41.2587 16.0976 41.361 15.937 41.4486C13.907 42.4562 6.16699 46.5015 4.23928 50.7805C2.0487 55.6289 4.58978 59.1047 6.26922 59.572C11.4828 61.0178 16.8424 58.4183 19.7194 54.1247C22.5963 49.8312 22.2459 44.2525 20.9169 41.6968C20.9023 41.6676 20.8877 41.6384 20.8585 41.6092C21.3842 41.3025 21.9246 40.9813 22.4503 40.6746C23.4872 40.0612 24.5095 39.4917 25.3857 39.0243C24.8892 40.3825 24.5241 42.0035 24.3488 44.3401C24.1298 47.0857 25.2543 50.649 26.7292 52.051C27.3864 52.6643 28.1604 52.679 28.657 52.679C30.3802 52.679 31.1542 51.2478 32.0158 49.5537C33.0673 47.48 34.0166 45.0703 34.0166 45.0703C34.0166 45.0703 32.8337 51.5837 36.0465 51.5837C37.2148 51.5837 38.3977 50.0649 38.9235 49.2909C38.9235 49.3055 38.9235 49.3055 38.9235 49.3055C38.9235 49.3055 38.9527 49.2617 39.0111 49.1594C39.1279 48.9696 39.201 48.8527 39.201 48.8527C39.201 48.8527 39.201 48.8381 39.201 48.8235C39.6683 48.0057 40.7198 46.151 42.2824 43.0696C44.2977 39.0974 46.24 34.132 46.24 34.132C46.24 34.132 46.4153 35.3442 47.014 37.3595C47.3645 38.5424 48.0947 39.8422 48.6789 41.0981C48.2115 41.7553 47.9195 42.1204 47.9195 42.1204C47.9195 42.1204 47.9195 42.1204 47.9341 42.135C47.5544 42.6315 47.1455 43.1718 46.6927 43.6976C45.1009 45.5961 43.2024 47.7721 42.9395 48.4C42.6329 49.1448 42.7059 49.6852 43.29 50.1233C43.7135 50.4446 44.4729 50.4884 45.247 50.4446C46.6781 50.3423 47.6858 49.9918 48.1823 49.7728C48.9563 49.4953 49.8618 49.0718 50.7088 48.4438C52.2714 47.2901 53.2207 45.6399 53.133 43.4639C53.0892 42.2664 52.6949 41.0689 52.213 39.9444C52.359 39.7399 52.4905 39.5355 52.6365 39.331C55.1046 35.7239 57.0177 31.7662 57.0177 31.7662C57.0177 31.7662 57.1929 32.9783 57.7917 34.9937C58.0838 36.0159 58.6825 37.1258 59.2083 38.2065C56.8862 40.0904 55.4551 42.281 54.9439 43.7122C54.0239 46.3701 54.7395 47.5676 56.0976 47.8451C56.711 47.9765 57.5872 47.6844 58.2298 47.407C59.0476 47.1441 60.0115 46.6914 60.9315 46.0196C62.4941 44.8659 63.9983 43.2595 63.9107 41.0835C63.8669 40.0904 63.604 39.112 63.2389 38.1627C65.2104 37.3449 67.7515 36.8922 70.9936 37.2719C77.945 38.0897 79.3178 42.427 79.0549 44.2525C78.7921 46.078 77.3317 47.0711 76.8497 47.3777C76.3678 47.6844 76.2072 47.7867 76.251 48.0057C76.3094 48.327 76.5431 48.3124 76.952 48.254C77.5215 48.1518 80.6029 46.779 80.7344 43.4201C80.9534 39.1266 76.8643 34.4387 69.6354 34.4825ZM16.01 52.5621C13.7026 55.074 10.4897 56.0232 9.10237 55.22C7.61278 54.3584 8.19693 50.649 11.0301 47.9911C12.7533 46.3701 14.9731 44.8659 16.4481 43.9458C16.784 43.7414 17.2805 43.4493 17.8793 43.0842C17.9815 43.0258 18.0399 42.9966 18.0399 42.9966C18.1568 42.9236 18.2736 42.8505 18.3904 42.7775C19.4273 46.5745 18.4342 49.9188 16.01 52.5621ZM32.8045 41.1419C32.0012 43.0988 30.3218 48.1079 29.2995 47.8305C28.4233 47.5968 27.8829 43.7998 29.1243 40.0466C29.7522 38.1627 31.0812 35.9137 31.8552 35.0375C33.1111 33.6355 34.4985 33.1682 34.8344 33.7377C35.2579 34.4825 33.301 39.9152 32.8045 41.1419ZM46.6635 47.7721C46.3276 47.9473 46.0064 48.0641 45.8603 47.9765C45.7581 47.9181 46.0064 47.6844 46.0064 47.6844C46.0064 47.6844 47.7442 45.8151 48.4306 44.9681C48.8249 44.4716 49.2922 43.8874 49.7888 43.2303C49.7888 43.2887 49.7888 43.3617 49.7888 43.4201C49.7888 45.6545 47.6274 47.1587 46.6635 47.7721ZM57.3536 45.3332C57.1053 45.158 57.1491 44.5738 57.9815 42.7483C58.3028 42.0327 59.0622 40.8352 60.362 39.6815C60.508 40.1488 60.6102 40.6016 60.5956 41.0251C60.581 43.8436 58.5657 44.8951 57.3536 45.3332Z" fill="#CD6799"/>
</g>
<defs>
<clipPath id="clip0">
<rect width="80" height="59.9635" fill="white" transform="translate(0.79364 0.0183105)"/>
</clipPath>
</defs>
</svg>
