<svg width="65" height="64" viewBox="0 0 65 64" fill="none" xmlns="http://www.w3.org/2000/svg">
<g clip-path="url(#clip0_502_2)">
<path d="M58.2306 0H6.73059C3.27881 0 0.480591 2.79822 0.480591 6.25V57.75C0.480591 61.2018 3.27881 64 6.73059 64H58.2306C61.6824 64 64.4806 61.2018 64.4806 57.75V6.25C64.4806 2.79822 61.6824 0 58.2306 0Z" fill="#3178C6"/>
<path fill-rule="evenodd" clip-rule="evenodd" d="M40.1056 50.875V57.125C41.1181 57.65 42.3556 58.0375 43.7306 58.3C45.1056 58.5625 46.6056 58.6875 48.1056 58.6875C49.6056 58.6875 50.9806 58.55 52.3556 58.2625C53.7306 57.975 54.8556 57.5 55.8556 56.8875C56.8681 56.225 57.7306 55.3875 58.2306 54.2625C58.7306 53.1375 59.1181 51.8875 59.1181 50.2625C59.1181 49.125 58.9431 48.1375 58.6056 47.2625C58.2681 46.3875 57.7806 45.6375 57.1056 45.0125C56.4681 44.35 55.7306 43.7625 54.8556 43.2625C53.9806 42.7625 52.9806 42.2375 51.8556 41.7625C51.0306 41.425 50.3556 41.1 49.6056 40.775C48.9556 40.45 48.3931 40.125 47.9806 39.8C47.5181 39.4625 47.1681 39.1125 46.9181 38.75C46.6681 38.375 46.5431 37.9625 46.5431 37.5C46.5431 37.075 46.6543 36.6875 46.8806 36.3375C47.1068 35.9875 47.4181 35.7 47.8181 35.45C48.2181 35.2 48.7181 35.0125 49.3181 34.875C49.9056 34.7375 50.5556 34.675 51.3181 34.675C51.8431 34.675 52.3931 34.7137 52.9431 34.7925C53.5181 34.8712 54.1056 34.9925 54.6931 35.155C55.2806 35.3175 55.8556 35.5175 56.4431 35.7675C56.9931 36.0175 57.5056 36.305 57.9431 36.63V30.755C56.9931 30.3925 55.9431 30.1175 54.8181 29.9425C53.6931 29.7675 52.4431 29.68 50.9431 29.68C49.4431 29.68 48.0681 29.8425 46.6931 30.155C45.3181 30.4675 44.1931 30.9675 43.1931 31.655C42.1806 32.33 41.4431 33.155 40.8181 34.28C40.2306 35.33 39.9431 36.53 39.9431 38.03C39.9431 39.905 40.4806 41.53 41.5681 42.78C42.6431 44.155 44.3181 45.155 46.4431 46.155C47.3056 46.505 48.0681 46.855 48.8181 47.1925C49.5681 47.53 50.1931 47.88 50.6931 48.2425C51.2306 48.605 51.6556 49.005 51.9431 49.43C52.2556 49.855 52.4181 50.355 52.4181 50.93C52.4181 51.33 52.3206 51.705 52.1306 52.055C51.9406 52.405 51.6431 52.705 51.2431 52.955C50.8431 53.205 50.3556 53.405 49.7431 53.555C49.1556 53.6925 48.4931 53.7675 47.6181 53.7675C46.2431 53.7675 44.8681 53.53 43.6181 53.055C42.2431 52.58 40.9931 51.8675 39.8681 50.93L40.1056 50.875ZM29.6056 35.5H37.6056V30.375H15.2306V35.5H23.2306V58.375H29.6056V35.5Z" fill="white"/>
</g>
<defs>
<clipPath id="clip0_502_2">
<rect width="64" height="64" fill="white" transform="translate(0.480591)"/>
</clipPath>
</defs>
</svg>
